<svg width="16" height="16" viewBox="0 0 16 16" fill="none" xmlns="http://www.w3.org/2000/svg">
<g clip-path="url(#clip0_6034_420)">
<path d="M8 6.99998C5.51843 6.99998 2 10.8362 2 13.2578C2 14.3484 2.83781 15 4.24187 15C5.76812 15 6.77593 14.2162 8 14.2162C9.23468 14.2162 10.2453 15 11.7581 15C13.1622 15 14 14.3484 14 13.2578C14 10.8362 10.4816 6.99998 8 6.99998ZM3.3975 6.60591C3.0725 5.5231 2.07125 4.82185 1.16125 5.03935C0.251246 5.25685 -0.222817 6.31091 0.102183 7.39373C0.427183 8.47654 1.42843 9.17779 2.33843 8.96029C3.24843 8.74279 3.7225 7.68873 3.3975 6.60591ZM6.045 5.95654C7.01187 5.70216 7.49562 4.39591 7.12562 3.03904C6.75562 1.68216 5.67187 0.788726 4.705 1.0431C3.73812 1.29748 3.25437 2.60373 3.62437 3.9606C3.99437 5.31748 5.07843 6.21123 6.045 5.95654ZM14.8384 5.03966C13.9284 4.82216 12.9275 5.52341 12.6022 6.60623C12.2772 7.68904 12.7512 8.7431 13.6612 8.9606C14.5712 9.1781 15.5722 8.47685 15.8975 7.39404C16.2225 6.31123 15.7484 5.25716 14.8384 5.03966ZM9.955 5.95654C10.9219 6.21091 12.0056 5.31748 12.3756 3.9606C12.7456 2.60373 12.2619 1.29779 11.295 1.0431C10.3281 0.788414 9.24437 1.68216 8.87437 3.03904C8.50437 4.39591 8.98812 5.70216 9.955 5.95654Z" fill="#002B5B"/>
</g>
<defs>
<clipPath id="clip0_6034_420">
<rect width="16" height="16" fill="white"/>
</clipPath>
</defs>
</svg>
